<svg xmlns="http://www.w3.org/2000/svg" viewBox="0 0 24 24" width="48" height="48">
    <path d="M12 2C6.48 2 2 6.48 2 12s4.48 10 10 10 10-4.48 10-10S17.52 2 12 2zm0 18c-1.38 0-2.75-.34-4-1-1.25-.66-2.35-1.56-3.24-2.62-.89-1.06-1.56-2.23-1.88-3.56C3.34 12.75 4.6 11 6 10.12 7.4 9.25 9.04 9 10.5 9c2.21 0 4 1.79 4 4s-1.79 4-4 4c-1.66 0-3.17-.83-4.12-2.12 1.07.44 2.21.68 3.37.68 2.21 0 4-1.79 4-4s-1.79-4-4-4c-1.72 0-3.21.91-4.24 2.24-1.03 1.33-1.55 2.92-1.51 4.56 0 .05.01.11.01.17 1.2-.03 2.41.01 3.58.14 2.61.26 4.59 2.44 4.59 5.06 0 2.61-2.01 4.87-4.58 5.05-1.17.13-2.37.17-3.58.14.05-.06.09-.13.14-.19C8.33 16.35 10.01 18 12 18z"/>
</svg>
